HIERARCHY
ROOT Hips
{
    OFFSET 0.000000 0.000000 0.000000
    CHANNELS 6 Xposition Yposition Zposition Zrotation Xrotation Yrotation
        JOINT Chest
        {
            OFFSET -0.000000 28.502190 -0.000000
            CHANNELS 3 Zrotation Xrotation Yrotation
            JOINT Neck
            {
                OFFSET -0.000000 21.060717 0.000000
                CHANNELS 3 Zrotation Xrotation Yrotation
                JOINT Head
                {
                    OFFSET -0.000000 9.900002 0.000000
                    CHANNELS 3 Zrotation Xrotation Yrotation
                    End Site
                    {
                        OFFSET -0.000000 15.300010 0.000000
                    }
                }
            }
            JOINT LeftCollar
            {
                OFFSET -0.000000 21.060717 0.000000
                CHANNELS 3 Zrotation Xrotation Yrotation
                JOINT LeftShoulder
                {
                    OFFSET 18.000004 -0.000000 0.000000
                    CHANNELS 3 Zrotation Xrotation Yrotation
                    JOINT LeftElbow
                    {
                        OFFSET 21.585543 0.000000 0.000000
                        CHANNELS 3 Zrotation Xrotation Yrotation
                        JOINT LeftWrist
                        {
                            OFFSET 21.310946 0.000000 0.000000
                            CHANNELS 3 Zrotation Xrotation Yrotation
                            End Site
                            {
                                OFFSET 0.000000 -13.500002 0.000000
                            }
                        }
                    }
                }
            }
            JOINT RightCollar
            {
                OFFSET -0.000000 21.060717 0.000000
                CHANNELS 3 Zrotation Xrotation Yrotation
                JOINT RightShoulder
                {
                    OFFSET -18.000004 0.000000 0.000000
                    CHANNELS 3 Zrotation Xrotation Yrotation
                    JOINT RightElbow
                    {
                        OFFSET -21.585543 0.000000 0.000000
                        CHANNELS 3 Zrotation Xrotation Yrotation
                        JOINT RightWrist
                        {
                            OFFSET -21.310946 0.000000 0.000000
                            CHANNELS 3 Zrotation Xrotation Yrotation
                            End Site
                            {
                                OFFSET -0.000000 -13.500002 0.000000
                            }
                        }
                    }
                }
            }
        }
    JOINT LeftHip
    {
        OFFSET 10.800001 0.000000 0.000000
        CHANNELS 3 Zrotation Xrotation Yrotation
        JOINT LeftKnee
        {
            OFFSET -0.000000 -36.918850 0.000000
            CHANNELS 3 Zrotation Xrotation Yrotation
            JOINT LeftAnkle
            {
                OFFSET -0.000000 -34.060452 0.000000
                CHANNELS 3 Zrotation Xrotation Yrotation
                End Site
                {
                    OFFSET -0.000000 -4.500001 15.300010
                }
            }
        }
    }
    JOINT RightHip
    {
        OFFSET -10.800001 0.000000 0.000000
        CHANNELS 3 Zrotation Xrotation Yrotation
        JOINT RightKnee
        {
            OFFSET -0.000000 -36.918850 0.000000
            CHANNELS 3 Zrotation Xrotation Yrotation
            JOINT RightAnkle
            {
                OFFSET -0.000000 -34.060452 0.000000
                CHANNELS 3 Zrotation Xrotation Yrotation
                End Site
                {
                    OFFSET -0.000000 -4.500001 15.300010
                }
            }
        }
    }
}
MOTION
Frames:    10
Frame Time:    0.010000
-46.516239    80.110977    -92.455505    -0.823926    9.980134    24.782932    6.633826    29.607342    5.708831    4.516103    0.966034    -11.312881    2.417088    0.785237    -11.291524    -15.817097    0.234216    -1.517426    -44.690933    33.559437    -22.670326    5.370178    -1.106762    -23.717821    92.332054    -3.811987    -7.678357    14.189501    0.557171    4.550994    12.820749    14.698672    45.214283    -14.052756    -2.208570    17.565638    -77.419029    25.180113    -45.342003    -6.480809    -26.952616    4.846345    6.074197    10.932914    -14.545338    -2.541028    -9.881740    -2.120618    0.133640    -24.238565    -7.858716    -11.173352    23.514687    8.594022    0.042767    -11.053067    4.291907    
-46.713440    80.100082    -92.453232    -0.800355    9.810201    25.362955    6.747693    29.658302    5.459174    4.585313    1.130207    -11.381295    2.316774    0.732199    -11.350824    -15.758688    0.212840    -1.595274    -45.452721    33.032776    -21.836372    5.347121    -1.139831    -23.960606    91.606697    -3.969223    -7.855802    14.100192    0.577999    4.718778    12.661113    13.886949    44.976231    -13.896687    -2.123912    17.156752    -78.148346    25.040976    -44.785618    -6.451434    -26.691843    4.180017    5.902884    10.645438    -12.668347    -2.519058    -9.758172    -2.777963    0.096319    -24.027491    -8.282224    -11.123507    23.547007    9.003355    -0.472532    -11.128956    3.558930    
-46.904148    80.089058    -92.448318    -0.779977    9.646061    25.937750    6.842404    29.686098    5.207424    4.657871    1.271171    -11.440845    2.231464    0.698213    -11.402690    -15.704739    0.245591    -1.645972    -46.107262    32.553230    -21.174932    5.230456    -1.109502    -24.084660    90.949677    -4.114662    -8.052415    14.028732    0.591863    4.862229    12.503926    13.152395    44.802116    -13.691553    -2.032226    16.724039    -79.072411    24.906630    -43.942692    -6.428324    -26.479982    3.554966    5.768479    10.432593    -10.894813    -2.466791    -9.632347    -3.351723    0.063079    -23.831635    -8.733431    -11.117096    23.610096    9.734305    -0.986059    -11.198774    2.603058    
-47.086887    80.078384    -92.440750    -0.759607    9.486417    26.496124    6.908055    29.695681    4.974768    4.733899    1.389534    -11.495969    2.165325    0.672345    -11.451219    -15.658616    0.216265    -1.677289    -46.679935    32.238449    -20.634800    5.272846    -1.159183    -24.248800    90.298355    -4.178994    -8.187761    13.972957    0.606922    4.968132    12.304241    12.530872    44.706364    -13.416567    -1.930204    16.270000    -80.214546    24.760296    -42.825199    -6.410893    -26.315319    3.021473    5.675944    10.301203    -9.333144    -2.376308    -9.516737    -3.780656    0.035560    -23.645376    -9.188477    -11.147259    23.695860    10.729250    -1.439999    -11.255534    1.470899    
-47.260708    80.068436    -92.430038    -0.736578    9.329257    27.028297    6.938099    29.692671    4.778720    4.813046    1.485236    -11.553011    2.119755    0.642670    -11.502543    -15.616376    0.243008    -1.700595    -47.166000    31.961164    -20.244236    5.234516    -1.111212    -24.297560    89.728241    -4.258467    -8.318212    13.932010    0.603343    5.022165    12.022977    12.077893    44.699314    -13.131362    -1.812644    15.793735    -81.529312    24.587265    -41.513912    -6.397241    -26.193928    2.617663    5.626145    10.254870    -8.064421    -2.241516    -9.419856    -4.018201    0.015238    -23.462585    -9.624522    -11.201743    23.794556    11.888858    -1.780419    -11.301204    0.238572    
-47.425446    80.059479    -92.415291    -0.709832    9.172324    27.527163    6.930615    29.681385    4.632045    4.893841    1.562507    -11.616288    2.092756    0.594503    -11.560414    -15.583103    0.207735    -1.720989    -47.587132    31.836655    -19.949999    5.353768    -1.127565    -24.405891    89.202477    -4.274310    -8.372920    13.895466    0.644538    5.019221    11.655904    11.750308    44.768433    -12.701194    -1.713412    15.336525    -83.151665    24.446257    -39.945370    -6.382999    -26.111370    2.367049    5.615461    10.293938    -7.131642    -2.060225    -9.344647    -4.042153    0.003943    -23.278112    -10.021349    -11.264736    23.897520    13.095613    -1.975374    -11.346551    -1.009083    
-47.581669    80.051743    -92.395767    -0.679940    9.014454    27.988758    6.888717    29.664101    4.540985    4.974348    1.627149    -11.688206    2.078561    0.513178    -11.627001    -15.557020    0.241227    -1.738435    -47.924450    31.730499    -19.798784    5.315332    -1.147756    -24.403259    88.843903    -4.311280    -8.536183    13.863103    0.613629    4.961345    11.202863    11.665225    44.917263    -12.456905    -1.618539    14.867463    -84.796783    24.287447    -38.367847    -6.363041    -26.064417    2.275169    5.637214    10.415627    -6.532729    -1.832281    -9.287998    -3.859206    0.003318    -23.089602    -10.364282    -11.320406    23.997828    14.236125    -2.020511    -11.405086    -2.192772    
-47.730331    80.045532    -92.371475    -0.648965    8.857586    28.412024    6.817397    29.638430    4.505879    5.053434    1.686872    -11.771033    2.068931    0.385027    -11.703429    -15.545477    0.201292    -1.752497    -48.198307    31.782507    -19.728174    5.466249    -1.185628    -24.497684    88.486351    -4.302507    -8.555036    13.816881    0.581580    4.855096    10.730848    11.729931    45.090145    -12.100032    -1.554085    14.467854    -86.735847    24.214994    -36.616230    -6.333618    -26.052355    2.325828    5.682560    10.614047    -6.221070    -1.557509    -9.241624    -3.501740    0.013838    -22.899246    -10.647188    -11.356460    24.089783    15.219400    -1.932876    -11.486426    -3.248679    
-47.872280    80.041229    -92.343185    -0.619256    8.706044    28.798388    6.721594    29.599428    4.521633    5.129959    1.748153    -11.864824    2.055162    0.201927    -11.790570    -15.547509    0.221146    -1.762725    -48.389427    31.848925    -19.780386    5.454271    -1.180171    -24.498152    88.342941    -4.319997    -8.616839    13.747654    0.547714    4.710145    10.284970    11.911973    45.277599    -11.793999    -1.447216    14.138050    -88.761131    24.177273    -34.878510    -6.294016    -26.074762    2.478660    5.740751    10.879526    -6.109838    -1.237627    -9.192035    -3.020351    0.034235    -22.711979    -10.873739    -11.366911    24.167925    15.988380    -1.741201    -11.592921    -4.134190    
-48.007927    80.039261    -92.312073    -0.592982    8.565476    29.151287    6.606457    29.539833    4.578946    5.201073    1.817421    -11.968692    2.031299    -0.037769    -11.885675    -15.568705    0.221799    -1.767317    -48.499889    32.010910    -19.927547    5.527477    -1.182827    -24.572350    88.286789    -4.308481    -8.570386    13.647704    0.567695    4.541727    9.923034    12.114058    45.447132    -11.437255    -1.386960    13.914458    -90.982468    24.224085    -33.053440    -6.246720    -26.130934    2.678357    5.800209    11.200354    -6.086370    -0.878155    -9.122108    -2.476946    0.061665    -22.533550    -11.057106    -11.352278    24.226267    16.523174    -1.479140    -11.719420    -4.829510    
